<?xml version="1.0" standalone="no"?>
<!DOCTYPE svg PUBLIC "-//W3C//DTD SVG 20010904//EN"
 "http://www.w3.org/TR/2001/REC-SVG-20010904/DTD/svg10.dtd">
<svg version="1.0" xmlns="http://www.w3.org/2000/svg"
 width="350.000000pt" height="350.000000pt" viewBox="0 0 350.000000 350.000000">
<g transform="translate(0.000000,350.000000) scale(0.100000,-0.100000)"
fill="#D4AF37" stroke="none">
<path d="M1663 3413 c-56 -51 -108 -140 -124 -213 -13 -58 -16 -62 -65 -89
-150 -85 -232 -261 -180 -386 8 -19 18 -56 22 -82 3 -26 13 -60 20 -75 8 -15
14 -33 14 -40 0 -7 -19 24 -41 69 -48 98 -144 206 -215 245 -61 33 -135 52
-169 44 -25 -6 -25 -8 -25 -104 0 -98 20 -287 40 -377 6 -28 20 -62 30 -77 12
-16 20 -43 20 -66 0 -50 33 -179 59 -231 24 -47 75 -88 119 -97 18 -4 32 -10
32 -13 0 -6 -83 -51 -94 -51 -1 0 -8 18 -14 39 -14 45 -73 108 -129 136 -21
11 -40 21 -42 22 -2 1 -5 30 -7 65 -10 187 -32 283 -79 344 -98 128 -254 79
-215 -67 9 -34 32 -62 105 -134 64 -63 97 -103 103 -126 11 -41 5 -45 -43 -25
-21 9 -46 16 -56 16 -26 0 -59 -57 -59 -102 0 -21 -4 -38 -9 -38 -5 0 -22 -26
-38 -57 -38 -78 -39 -194 -4 -262 22 -42 23 -48 11 -100 -7 -31 -13 -92 -13
-137 -1 -68 3 -89 26 -136 18 -37 27 -71 27 -105 0 -28 5 -64 11 -81 9 -28 8
-34 -15 -59 -54 -58 -70 -109 -70 -218 0 -87 4 -109 28 -167 43 -103 127 -188
185 -188 15 0 28 -15 46 -50 84 -165 230 -212 437 -142 l87 30 49 -47 c99 -94
213 -123 322 -82 45 17 57 19 65 8 44 -59 150 -42 223 36 l34 35 45 -14 c127
-38 347 6 472 95 35 25 42 26 34 6 -7 -20 -81 -95 -93 -95 -18 0 -31 -39 -20
-60 18 -34 74 -24 81 14 3 15 14 20 49 23 l45 4 -34 -18 c-54 -28 -50 -40 14
-35 44 4 56 1 61 -12 5 -14 9 -14 26 -2 13 10 38 12 82 9 57 -5 66 -3 87 18
16 16 37 24 64 26 22 1 52 5 67 7 38 7 61 -17 46 -49 -14 -31 -55 -45 -129
-45 -48 0 -71 -7 -126 -36 -60 -32 -74 -35 -118 -30 -46 6 -48 5 -31 -9 31
-23 103 -18 166 11 32 16 92 32 143 39 107 16 127 30 127 92 0 54 -21 65 -103
54 -65 -9 -73 -6 -83 33 -9 38 -65 92 -103 99 -18 4 -50 1 -74 -7 -44 -15 -74
-15 -95 -2 -9 5 5 26 51 70 124 121 171 217 172 353 l0 82 45 29 c25 16 57 42
71 58 35 38 119 170 119 187 0 26 -25 37 -82 37 -51 0 -58 2 -58 19 0 30 -40
70 -85 85 -22 8 -40 18 -39 23 0 4 6 36 14 71 13 59 16 63 50 72 45 12 98 51
123 90 22 35 18 91 -7 119 -14 16 -14 23 5 77 44 124 17 228 -71 267 -36 17
-50 29 -54 48 -6 30 -32 45 -51 29 -6 -5 -30 -16 -53 -24 -47 -17 -54 -10 -40
39 12 44 34 55 108 55 112 0 193 56 220 151 6 19 10 43 10 53 0 19 0 19 -22 0
-55 -48 -62 -50 -35 -9 17 24 27 53 27 75 0 19 5 52 11 73 6 22 8 41 6 44 -7
7 -81 -33 -97 -52 -8 -9 -17 -51 -21 -94 l-6 -76 -1 73 c-1 45 4 86 13 109 8
20 13 38 11 40 -10 10 -165 -79 -199 -113 -80 -82 -105 -201 -69 -325 l19 -66
-32 -12 c-18 -6 -48 -27 -68 -46 -20 -19 -38 -35 -40 -35 -2 0 0 24 5 53 5 28
8 97 6 153 -1 91 0 102 20 122 28 28 47 73 82 197 15 55 44 145 64 199 20 55
35 105 32 112 -9 23 -111 37 -169 24 -134 -32 -218 -112 -278 -264 l-28 -71
-1 56 c0 43 7 68 29 110 45 84 55 131 41 207 -26 149 -127 262 -234 262 -30 0
-35 4 -41 29 -7 32 -97 101 -136 104 -14 1 -35 19 -57 49 -42 55 -104 102
-163 123 -62 22 -81 19 -126 -22z m125 -48 c72 -36 121 -85 142 -139 27 -72
-3 -156 -65 -182 -45 -19 -61 -18 -110 6 -45 22 -75 64 -75 104 0 39 27 96 45
96 9 0 37 -20 63 -44 44 -42 47 -48 46 -95 0 -28 1 -51 3 -51 11 0 33 66 33
100 0 76 -48 139 -121 160 -25 8 -32 5 -53 -23 -53 -71 -76 -183 -47 -235 31
-57 145 -81 224 -48 46 19 95 79 108 131 9 37 14 43 25 34 8 -6 14 -28 14 -48
0 -93 -91 -152 -245 -159 -79 -3 -95 -1 -134 20 -63 33 -84 75 -78 158 3 44
13 82 32 120 28 57 90 130 111 130 6 0 43 -16 82 -35z m282 -301 c0 -54 -53
-114 -125 -143 -16 -6 -97 -20 -180 -31 -82 -11 -171 -27 -197 -37 -61 -21
-146 -88 -198 -154 -22 -28 -40 -46 -40 -40 0 16 43 81 82 121 88 94 152 123
309 140 225 24 304 61 324 151 8 34 25 29 25 -7z m-525 -74 c8 -7 15 -15 15
-19 0 -4 -28 -27 -61 -51 -34 -25 -78 -64 -97 -88 l-36 -44 -19 38 c-16 32
-17 43 -8 75 15 51 56 97 94 107 35 9 90 1 112 -18z m741 -27 c86 -70 104
-130 56 -184 -36 -40 -60 -34 -92 24 -51 91 -82 127 -112 127 -15 0 -28 -4
-28 -10 0 -15 109 -173 136 -197 35 -32 72 -29 111 9 l33 32 -10 -33 c-12 -44
-26 -58 -60 -66 -60 -13 -130 48 -204 177 l-27 47 -45 -21 c-24 -12 -44 -25
-44 -28 0 -13 186 -188 226 -213 37 -23 42 -31 48 -76 4 -28 4 -72 1 -99 -4
-26 -2 -76 4 -111 19 -118 -11 -255 -80 -361 -67 -105 -91 -160 -96 -225 -9
-120 73 -215 186 -215 25 0 89 16 150 37 76 27 123 37 166 37 180 1 290 -182
182 -301 -26 -27 -42 -36 -78 -40 -51 -6 -101 14 -119 46 -16 31 -12 79 10
101 39 39 100 14 100 -42 0 -24 4 -28 29 -28 41 0 57 22 41 59 -21 51 -54 74
-115 79 -47 4 -61 1 -94 -21 -21 -14 -46 -42 -55 -62 -14 -30 -30 -42 -84 -67
-186 -84 -366 -92 -500 -24 -117 60 -188 159 -248 346 -20 63 -42 124 -48 135
-29 52 -70 95 -110 115 -35 16 -48 30 -65 69 -37 88 -63 203 -64 281 0 280 7
316 74 401 33 42 34 58 1 40 -20 -11 -73 -68 -91 -98 -9 -16 -12 -16 -21 -3
-16 25 -12 33 36 82 60 61 108 82 229 102 197 32 231 39 285 59 65 24 122 61
170 112 46 48 65 56 124 49 36 -4 60 -14 92 -41z m-1199 -195 c100 -37 197
-154 243 -293 20 -61 21 -67 6 -168 -9 -57 -16 -128 -16 -157 0 -114 -38 -173
-112 -172 -85 1 -134 94 -145 273 -6 93 -6 96 -33 106 -54 20 -71 68 -85 232
l-7 84 64 -5 c35 -3 79 -13 97 -22 54 -28 116 -98 135 -152 32 -88 39 -101 44
-81 5 25 -35 153 -63 203 -49 83 -135 138 -238 150 -41 5 -57 11 -57 22 0 12
10 13 57 7 32 -4 81 -16 110 -27z m1632 -44 c52 -11 35 -21 -36 -21 -125 0
-231 -73 -289 -198 -25 -53 -22 -76 5 -35 38 59 115 130 159 147 49 18 137 22
154 5 10 -10 -32 -174 -57 -223 -17 -33 -71 -79 -92 -79 -10 0 -13 -5 -8 -17
16 -43 17 -160 2 -214 -28 -94 -96 -169 -153 -169 -65 0 -105 90 -77 175 12
37 17 90 18 200 0 83 5 157 10 165 5 8 20 36 32 63 67 143 205 226 332 201z
m219 -318 c-3 -88 -5 -97 -32 -125 -33 -34 -112 -79 -122 -68 -4 4 -7 40 -8
79 0 99 28 149 109 191 55 29 57 26 53 -77z m-2151 50 c34 -28 70 -97 89 -169
15 -56 19 -197 6 -197 -5 0 -19 25 -31 55 -13 31 -52 90 -88 132 -88 103 -102
144 -63 183 26 26 52 25 87 -4z m76 -418 c127 -67 170 -104 186 -165 17 -59
13 -96 -15 -148 -17 -32 -22 -51 -15 -58 15 -15 36 7 83 85 31 52 54 78 92
102 63 40 102 85 132 151 l22 50 11 -30 c6 -16 17 -43 23 -58 10 -26 7 -31
-46 -83 -31 -30 -66 -74 -78 -97 -27 -51 -30 -138 -6 -182 16 -30 16 -32 -21
-90 -77 -122 -103 -249 -72 -357 19 -68 11 -75 -37 -31 l-43 38 21 49 c31 68
35 143 15 276 -9 63 -18 116 -20 119 -11 10 -60 -13 -96 -46 -27 -25 -44 -50
-52 -81 -9 -33 -24 -54 -61 -85 -66 -55 -106 -120 -106 -170 0 -33 3 -38 18
-32 9 4 29 11 44 17 25 9 27 13 22 52 -7 49 2 59 73 85 l48 17 -3 50 c-3 52
27 119 50 112 18 -6 40 -135 35 -208 -8 -121 -72 -221 -152 -236 -110 -20
-204 66 -205 189 0 54 10 79 48 119 26 28 57 41 125 53 28 4 37 11 37 25 0 16
-7 20 -35 20 -55 0 -112 -29 -154 -77 l-39 -46 -12 38 c-44 134 49 345 139
314 28 -10 80 -86 102 -146 6 -18 15 -33 19 -33 5 0 18 16 30 35 20 33 20 35
4 62 -26 42 -85 103 -116 119 -38 20 -75 17 -116 -8 l-35 -21 -23 26 c-45 53
-49 132 -10 192 16 24 18 25 47 9 27 -13 30 -19 26 -49 -6 -43 20 -87 62 -105
43 -17 59 -2 36 34 -19 29 -23 92 -6 109 18 18 13 27 -14 27 -37 0 -85 48 -92
93 -3 20 -2 37 2 37 4 0 62 -28 128 -62z m2009 -4 c-5 -31 -36 -66 -75 -87
l-37 -19 35 -33 c30 -27 35 -39 35 -76 0 -25 -7 -55 -16 -67 -9 -13 -13 -26
-10 -29 11 -11 60 32 78 68 22 44 22 67 0 110 -18 36 -18 36 5 65 22 28 24 28
50 14 35 -19 73 -93 73 -140 0 -67 -30 -131 -87 -189 -43 -42 -49 -52 -31 -48
13 3 37 8 55 12 26 6 33 3 43 -14 10 -19 7 -26 -23 -56 -36 -36 -87 -48 -87
-22 0 27 -60 97 -102 119 -61 32 -167 31 -268 -2 -97 -31 -229 -35 -275 -7
-47 29 -78 81 -83 141 -5 65 10 101 74 174 45 51 64 58 64 23 0 -37 53 -100
101 -121 55 -23 88 -64 105 -129 13 -55 43 -67 69 -28 14 22 14 29 2 59 -8 18
-26 47 -40 64 l-26 31 44 31 45 32 0 -58 c0 -39 6 -67 20 -89 32 -54 41 -42
34 46 -6 69 -4 85 14 123 25 49 70 84 145 109 60 21 73 20 69 -7z m-1371 -210
c58 -29 68 -38 74 -66 15 -72 69 -227 101 -289 63 -126 168 -215 293 -249 61
-16 221 -13 294 6 34 8 100 33 146 55 94 44 91 43 91 29 0 -5 -6 -10 -13 -10
-8 0 -22 -9 -33 -21 -15 -17 -19 -39 -21 -110 -3 -124 -36 -183 -143 -258
-135 -95 -294 -148 -470 -158 -175 -9 -277 22 -432 134 -43 31 -78 57 -78 59
0 1 18 -2 41 -7 89 -20 191 24 295 126 75 74 137 173 132 208 -2 18 -11 9 -42
-42 -22 -36 -67 -92 -100 -126 -129 -130 -261 -152 -380 -63 -16 13 -9 14 61
14 67 0 89 5 144 30 106 50 259 196 259 247 0 28 -12 19 -62 -43 -82 -102
-228 -190 -313 -190 -49 0 -100 23 -121 55 -13 20 -17 47 -17 109 0 116 31
203 92 266 25 26 55 52 65 57 18 10 16 14 -22 50 -36 34 -42 46 -42 82 0 58
20 100 70 145 43 39 44 39 54 17 6 -13 38 -37 77 -57z m1087 -594 c34 -17 121
-15 166 4 21 9 63 16 93 16 45 0 58 -4 80 -26 49 -49 17 -54 -259 -43 -73 3
-90 1 -105 -14 -35 -35 -9 -151 46 -202 12 -11 57 -38 99 -60 65 -34 79 -45
89 -75 15 -47 1 -123 -38 -209 -89 -196 -258 -305 -412 -265 -85 22 -129 57
-221 173 -48 61 -94 115 -103 120 -14 7 -7 12 33 24 148 44 275 139 334 249
19 35 53 86 76 115 39 48 64 105 64 143 -1 8 -7 33 -15 54 -18 52 -9 64 24 33
14 -13 37 -30 49 -37z m502 -66 c0 -12 -96 -139 -132 -175 -102 -101 -248 -71
-324 66 -19 33 -34 63 -34 67 0 17 68 18 146 3 101 -21 157 -16 240 18 56 24
104 34 104 21z m-2019 -114 c26 -22 67 -49 91 -59 24 -10 52 -29 63 -41 64
-73 260 -211 368 -260 l61 -28 -69 -35 c-39 -19 -112 -60 -164 -91 -127 -75
-177 -91 -281 -90 -191 1 -373 108 -445 260 -56 118 -56 225 0 313 l25 40 35
-14 c57 -25 133 -19 196 14 30 15 58 29 63 30 6 0 31 -17 57 -39z m1229 -196
c-94 -95 -269 -155 -454 -153 -155 1 -193 17 -44 18 64 1 150 8 190 16 80 17
206 73 289 129 30 20 56 36 58 36 3 0 -15 -21 -39 -46z m-502 -224 c23 -10 42
-21 42 -23 0 -3 -18 -5 -40 -5 -75 -1 -132 -27 -300 -137 -52 -35 -117 -74
-145 -88 -155 -81 -340 -73 -425 17 l-24 27 48 -22 c140 -62 278 -27 511 128
105 70 145 92 200 109 56 18 84 16 133 -6z m117 -70 c37 -23 58 -67 43 -93
-10 -19 -58 -23 -75 -6 -7 7 -23 9 -37 5 -23 -6 -26 -11 -26 -52 0 -57 -22
-99 -61 -120 -44 -22 -130 -29 -183 -14 -48 13 -130 75 -121 91 8 11 157 117
210 148 101 60 195 75 250 41z m309 -194 c32 -19 78 -38 102 -42 69 -10 51
-24 -23 -18 -121 8 -211 44 -271 107 -30 31 -32 37 -22 57 7 13 9 36 6 54 -6
29 -1 26 71 -46 43 -42 104 -93 137 -112z m-282 -2 c17 -19 44 -42 60 -50 25
-13 28 -17 16 -31 -32 -39 -134 -57 -158 -28 -16 19 -7 67 21 111 11 19 23 34
25 34 3 0 19 -16 36 -36z m916 2 c38 -20 61 -47 68 -82 8 -45 -14 -67 -69 -68
-55 -1 -83 20 -72 54 6 19 13 21 51 18 27 -2 43 1 41 7 -2 5 -22 11 -45 13
-51 4 -86 -25 -76 -63 6 -24 4 -25 -37 -24 -35 1 -39 2 -19 8 22 6 25 13 26
51 1 81 64 121 132 86z"/>
<path d="M2005 2337 c-19 -19 -35 -43 -35 -53 0 -17 3 -16 19 5 l18 24 22 -22
c11 -11 24 -21 29 -21 18 0 52 33 52 51 0 20 15 26 25 9 11 -18 -6 -50 -35
-65 -19 -10 -45 -13 -77 -10 l-48 5 45 -16 c58 -20 90 -9 127 45 16 22 37 43
48 46 16 6 12 9 -20 16 -22 5 -61 12 -87 16 -44 5 -50 3 -83 -30z"/>
<path d="M1551 2335 c-18 -8 -44 -15 -57 -15 -13 0 -24 -4 -24 -10 0 -5 8 -10
18 -10 10 0 24 -10 31 -23 27 -50 104 -71 168 -46 38 16 11 23 -31 9 -38 -12
-78 1 -106 35 -12 14 -12 18 1 26 21 13 29 11 29 -9 0 -43 58 -57 84 -20 15
21 16 21 36 3 17 -16 20 -16 20 -2 0 9 -10 28 -23 42 -28 34 -96 43 -146 20z"/>
<path d="M1834 1978 c-20 -65 9 -216 62 -319 74 -142 191 -219 335 -219 77 0
309 65 309 87 0 21 -17 23 -56 7 -146 -62 -291 -73 -380 -29 -65 32 -118 89
-155 169 -32 68 -59 184 -59 251 0 24 -3 50 -6 59 -9 23 -42 19 -50 -6z"/>
<path d="M2213 1888 c-29 -14 -46 -59 -38 -97 6 -27 63 -90 83 -91 4 -1 27 -5
51 -9 45 -9 94 0 124 21 15 12 9 21 -61 95 -81 87 -114 104 -159 81z"/>
</g>
</svg>
