<?xml version="1.0" standalone="no"?>
<!DOCTYPE svg PUBLIC "-//W3C//DTD SVG 20010904//EN"
 "http://www.w3.org/TR/2001/REC-SVG-20010904/DTD/svg10.dtd">
<svg version="1.0" xmlns="http://www.w3.org/2000/svg"
 width="687.000000pt" height="363.000000pt" viewBox="0 0 687.000000 363.000000"
 preserveAspectRatio="xMidYMid meet">
<metadata>
Created by potrace 1.16, written by Peter Selinger 2001-2019
</metadata>
<g transform="translate(0.000000,363.000000) scale(0.100000,-0.100000)"
fill="#000000" stroke="none">
<path d="M1524 3282 c-23 -11 -53 -35 -68 -54 -28 -38 -54 -112 -50 -143 10
-77 18 -103 52 -174 36 -73 37 -79 20 -90 -10 -6 -52 -11 -93 -11 -57 0 -75
-3 -75 -14 0 -7 36 -50 79 -95 76 -77 82 -81 124 -81 l44 0 6 -117 c4 -65 5
-311 2 -548 -2 -251 1 -457 6 -495 6 -36 12 -81 14 -100 4 -41 28 -116 57
-179 17 -38 18 -48 7 -68 -7 -14 -22 -29 -33 -35 -17 -9 -24 -5 -48 23 -16 19
-35 41 -43 50 -8 9 -15 21 -15 27 0 6 -6 15 -14 19 -8 4 -49 41 -90 82 -161
156 -336 191 -456 91 -31 -26 -55 -58 -70 -92 -21 -49 -22 -58 -11 -113 17
-81 59 -149 161 -254 94 -97 134 -122 232 -145 97 -23 128 -22 251 13 53 15
160 62 175 77 7 8 19 11 25 7 7 -4 6 -8 -4 -12 -10 -4 1 -20 39 -57 28 -28 52
-47 52 -42 0 5 12 -5 28 -23 15 -18 26 -36 25 -40 -1 -4 19 -25 45 -48 26 -23
84 -75 130 -116 46 -42 95 -83 110 -92 15 -10 29 -20 32 -23 21 -22 96 -69
178 -112 53 -27 101 -54 107 -59 5 -5 16 -9 25 -9 8 0 28 -7 44 -15 15 -8 40
-15 55 -15 15 0 31 -4 36 -8 9 -8 102 -28 170 -37 17 -2 84 -4 150 -5 231 -1
463 78 737 251 62 40 145 88 183 107 39 20 72 40 73 44 2 4 10 8 18 8 8 0 28
7 44 15 40 21 175 45 257 47 68 2 173 -19 173 -34 0 -4 5 -8 10 -8 6 0 30 -9
52 -20 23 -11 43 -18 46 -16 20 21 -119 169 -198 211 -67 36 -208 55 -315 42
-67 -7 -273 -77 -305 -102 -8 -7 -37 -25 -65 -40 -27 -15 -80 -46 -118 -69
-117 -72 -141 -85 -197 -113 -30 -15 -57 -30 -60 -34 -3 -3 -32 -16 -65 -27
-127 -44 -202 -64 -250 -67 -210 -15 -245 -15 -325 -1 -47 8 -106 17 -132 21
-26 3 -50 10 -53 14 -2 5 -21 12 -42 16 -20 4 -54 15 -75 26 -21 11 -38 17
-38 14 0 -3 -17 5 -37 17 -21 13 -55 32 -75 42 -21 11 -38 23 -38 28 0 5 -4 7
-10 3 -5 -3 -17 2 -27 12 -10 10 -37 30 -58 45 -65 45 -245 216 -245 233 0 6
-14 23 -31 39 l-31 29 24 19 c40 31 38 32 199 -115 72 -66 81 -73 126 -99 21
-12 40 -25 43 -29 8 -11 123 -60 150 -64 14 -2 61 -13 105 -24 116 -30 202
-27 398 14 16 3 48 13 70 21 23 8 51 18 62 21 11 4 38 19 59 35 21 15 44 28
50 28 18 0 109 84 153 142 51 66 76 136 75 209 -2 131 -61 239 -218 396 -106
107 -187 158 -266 169 -156 21 -177 23 -238 13 -36 -6 -101 -24 -145 -41 -44
-16 -87 -31 -95 -33 -8 -2 -37 -16 -63 -32 -26 -15 -68 -39 -92 -53 -63 -35
-334 -233 -334 -244 -1 -9 -31 -35 -43 -36 -17 0 -20 102 -20 694 l0 634 23
31 c13 17 29 29 35 27 23 -9 23 22 1 48 -12 15 -60 67 -107 117 -72 77 -87 99
-97 142 -24 99 10 182 91 224 44 23 158 14 221 -17 28 -14 52 -27 55 -31 8 -8
100 -69 106 -69 2 0 12 -8 22 -17 10 -10 41 -39 70 -65 29 -26 55 -56 57 -67
4 -20 -1 -21 -76 -21 -56 0 -79 -4 -79 -12 0 -7 28 -42 63 -78 61 -64 62 -65
35 -68 -16 -2 -28 -7 -28 -11 0 -4 -23 -8 -52 -10 -28 -1 -66 -8 -85 -16 -18
-8 -33 -12 -33 -9 0 17 -87 -67 -117 -112 -29 -44 -35 -63 -40 -128 -6 -71 -4
-78 22 -116 59 -85 227 -216 317 -246 68 -23 182 -23 228 -1 45 23 50 22 50
-12 0 -24 14 -42 76 -96 86 -74 121 -84 117 -30 -8 112 -10 616 -2 620 5 4 9
20 9 37 0 33 55 98 84 98 25 0 19 20 -15 49 -17 14 -58 52 -91 84 -67 63 -54
60 -225 57 -61 -1 -83 2 -83 11 0 14 -180 194 -276 275 -88 75 -183 140 -234
160 -25 9 -50 21 -57 26 -6 5 -45 12 -85 14 -58 4 -81 1 -114 -14z m850 -812
c33 -12 34 -45 5 -103 -12 -23 -21 -43 -20 -45 4 -7 -32 -64 -58 -90 -78 -77
-181 -108 -273 -80 -30 9 -37 16 -43 44 -16 90 49 194 161 256 41 23 61 28
126 28 42 0 88 -4 102 -10z m578 -1061 c38 -15 79 -40 92 -56 57 -66 54 -230
-6 -315 -11 -16 -16 -28 -12 -28 15 0 -52 -63 -129 -121 -43 -33 -81 -59 -85
-59 -4 0 -18 -6 -32 -13 -14 -8 -68 -28 -120 -47 -92 -32 -100 -33 -251 -33
-151 0 -188 6 -264 38 -108 46 -177 80 -183 89 -4 6 -26 24 -49 39 -23 16 -44
35 -47 43 -5 12 48 62 128 119 16 11 45 34 65 50 21 17 50 39 65 50 16 11 40
29 55 40 55 42 91 65 101 65 5 0 10 4 10 9 0 12 239 131 262 131 9 0 27 5 40
10 33 15 184 28 243 22 28 -3 80 -18 117 -33z m-1554 -199 c20 -12 41 -28 45
-36 4 -8 14 -14 21 -14 15 0 86 -87 86 -106 0 -16 -39 -44 -61 -44 -9 0 -22
-7 -29 -15 -11 -13 -94 -42 -150 -52 -101 -18 -230 -5 -264 27 -16 16 -7 130
14 170 20 40 70 84 105 93 11 3 60 4 108 2 67 -3 96 -9 125 -25z"/>
<path d="M4351 2812 c-423 -2 -420 -2 -363 -54 15 -14 50 -52 78 -84 l50 -59
-43 -39 c-83 -75 -89 -119 -28 -220 l33 -56 -43 -45 c-128 -136 -166 -342
-103 -552 5 -18 14 -33 19 -33 5 0 9 -6 9 -13 0 -12 54 -103 70 -117 3 -3 17
-21 31 -40 53 -70 186 -199 254 -247 77 -54 171 -101 219 -110 17 -3 36 -9 41
-13 6 -4 48 -13 94 -20 127 -19 343 2 462 45 24 9 53 19 64 22 26 7 163 72
390 184 99 49 186 89 193 89 7 0 38 9 70 19 39 13 98 21 188 24 135 6 211 -5
307 -46 20 -9 41 -17 45 -18 18 -4 60 -26 94 -47 31 -20 39 -32 48 -79 23
-108 -17 -234 -93 -296 -21 -18 -50 -42 -64 -54 -28 -23 -121 -53 -163 -52
-14 0 -54 6 -90 12 -36 6 -68 10 -72 9 -13 -3 -139 70 -145 84 -3 8 -9 12 -13
9 -5 -3 -11 -1 -15 5 -10 16 -25 12 -25 -7 0 -9 42 -58 94 -108 192 -186 385
-238 555 -151 17 9 33 16 36 16 11 -2 80 62 97 89 57 87 71 126 76 208 4 72 2
86 -18 120 -53 87 -92 143 -101 143 -6 0 -8 4 -5 9 3 4 -20 33 -50 62 -31 30
-76 73 -99 97 -42 42 -72 62 -160 104 -22 10 -49 24 -60 30 -43 24 -207 58
-280 58 -175 -1 -301 -41 -620 -199 -132 -65 -260 -125 -285 -132 -25 -7 -49
-16 -55 -20 -5 -4 -26 -9 -45 -12 -19 -3 -66 -13 -104 -22 -166 -39 -380 -13
-544 68 -104 51 -145 90 -167 159 -10 29 -22 59 -28 66 -19 24 -9 246 14 305
44 116 90 182 154 223 25 15 45 32 45 36 0 4 8 8 18 8 10 0 23 5 29 11 29 29
226 27 244 -2 11 -18 -16 -124 -39 -157 -28 -38 -31 -32 69 -136 l66 -69 21
21 c35 35 52 78 52 130 0 88 -27 149 -104 232 -28 30 -62 69 -76 85 -32 39
-72 63 -142 88 -10 4 -18 16 -18 28 0 20 4 21 93 18 l92 -3 2 39 c1 22 2 68 2
102 l1 63 182 2 c154 3 183 5 186 18 1 9 -30 50 -70 92 -68 72 -76 77 -119 80
-26 2 -223 2 -438 0z"/>
<path d="M2970 2799 c0 -15 113 -147 128 -148 6 -1 12 -5 12 -11 0 -6 -38 -10
-95 -10 -80 0 -103 -4 -138 -23 -50 -26 -97 -62 -97 -72 0 -5 -11 -23 -26 -42
-52 -68 -66 -133 -41 -190 34 -80 102 -153 205 -218 8 -5 24 -18 35 -29 10
-10 44 -30 76 -45 46 -21 69 -26 131 -25 41 1 93 8 115 17 46 17 65 6 65 -38
0 -14 3 -25 8 -25 8 0 47 -32 99 -80 18 -17 42 -30 53 -30 20 0 20 5 20 326 0
359 5 399 52 439 16 14 33 25 38 25 5 0 9 -149 9 -331 l0 -332 31 -26 c17 -14
44 -37 61 -51 17 -14 37 -31 45 -37 7 -7 21 -13 32 -13 20 0 20 6 16 312 -6
396 1 434 89 467 25 10 39 41 17 41 -15 0 -150 131 -150 146 0 12 -66 14 -395
14 -270 0 -395 -3 -395 -11z m315 -329 c25 -9 27 -14 20 -47 -10 -56 -61 -156
-100 -196 -53 -55 -115 -78 -210 -80 l-80 -2 -9 43 c-15 71 6 139 61 196 64
68 129 96 220 96 39 0 84 -5 98 -10z"/>
<path d="M843 2635 c-16 -11 -23 -28 -25 -63 l-3 -47 -30 34 c-60 69 -60 69
-137 76 -40 4 -93 5 -118 3 -43 -3 -45 -4 -44 -34 2 -37 76 -113 112 -114 25
0 24 7 22 -295 0 -111 -3 -131 -17 -140 -37 -22 -73 -67 -69 -88 2 -12 9 -22
16 -22 7 0 18 -9 24 -20 25 -44 86 -74 86 -42 0 15 72 57 99 57 28 0 27 -34
-1 -77 -18 -25 -30 -33 -54 -33 -16 0 -35 -5 -41 -11 -13 -13 -58 -8 -58 7 0
6 -16 28 -37 49 -20 20 -44 55 -53 76 -10 21 -22 36 -27 33 -5 -3 -8 1 -6 9 2
8 -8 24 -21 36 -26 23 -71 81 -71 92 0 3 15 12 33 20 112 45 171 175 122 270
-9 16 -42 57 -75 93 -71 76 -135 104 -188 84 -36 -14 -57 -55 -48 -94 4 -15
27 -51 52 -79 24 -29 44 -60 44 -69 0 -9 12 -21 26 -26 l26 -10 -24 -19 c-12
-11 -24 -15 -26 -10 -2 5 -12 4 -24 -2 -16 -9 -25 -6 -47 14 -33 31 -50 36
-78 26 -43 -16 -30 -55 42 -125 36 -35 73 -64 83 -64 14 0 74 -75 90 -113 2
-4 19 -22 37 -40 17 -18 37 -42 44 -54 13 -26 15 -63 2 -63 -13 0 -144 90
-150 103 -1 4 -19 19 -40 32 -20 14 -46 32 -58 41 -19 14 -23 14 -23 2 0 -19
96 -125 129 -143 14 -7 48 -34 75 -59 48 -45 63 -54 206 -128 100 -51 162 -53
215 -7 46 41 66 80 67 130 0 44 -16 72 -97 164 l-49 57 0 187 c0 170 2 189 19
213 11 15 30 31 42 37 15 7 20 16 16 30 -7 28 1 26 34 -6 44 -45 66 -53 91
-32 12 9 22 22 22 28 0 6 6 11 14 11 12 0 14 -13 9 -72 -3 -40 -11 -76 -17
-80 -6 -4 -40 -8 -76 -8 -76 0 -98 -16 -90 -66 5 -31 77 -133 95 -134 6 0 22
-14 35 -31 93 -116 136 -147 173 -127 17 8 18 21 16 116 l-3 106 49 -3 c28 -1
53 -8 57 -14 4 -6 6 -159 5 -340 l-2 -329 25 -19 c14 -11 37 -31 53 -44 31
-28 45 -31 53 -11 3 7 6 211 7 452 2 432 2 440 24 474 24 38 65 73 101 84 12
4 22 11 22 16 0 5 -28 37 -61 71 -50 51 -68 63 -98 65 -20 2 -65 6 -100 10
-39 4 -98 1 -149 -6 -77 -12 -83 -15 -78 -34 4 -18 1 -17 -17 7 -13 15 -28 27
-35 27 -7 0 -12 5 -12 10 0 16 -113 12 -137 -5z m353 -146 c36 -4 67 -9 70
-12 3 -3 1 -14 -5 -25 -6 -12 -11 -37 -11 -56 l0 -36 -55 0 -55 0 0 57 c0 45
-5 62 -22 82 -15 17 -17 21 -4 11 10 -8 47 -17 82 -21z"/>
</g>
</svg>
